<?xml version="1.0" encoding="UTF-8"?>
<svg viewBox="0 0 173 42" xmlns="http://www.w3.org/2000/svg">
<path d="m40.065 2.2567-9.8051 34.735c-0.0499 0.1577-0.2493 0.205-0.3656 0.0946l-6.5644-6.228 4.9191-17.407c0.0499-0.1577-0.0997-0.2996-0.2659-0.2523l-18.347 4.6671-6.5312-6.1965c-0.11633-0.1104-0.06647-0.2996 0.09971-0.3469l36.595-9.3184c0.1662-0.03153 0.3157 0.11037 0.2659 0.25227z" fill="#00B37E" opacity=".5"/>
<path d="m23.33 30.858-2.526 8.9872c-0.0499 0.1577-0.2493 0.205-0.3656 0.0946l-20.375-19.315c-0.11633-0.1104-0.066475-0.2996 0.099713-0.3469l9.4727-2.4124 13.694 12.992z" fill="#00B37E" opacity=".5"/>
<path d="m28.248 13.451-4.9192 17.407-13.694-12.992 18.347-4.6671c0.1662-0.0473 0.3157 0.0946 0.2659 0.2523z" fill="#00B37E"/>
<path d="m63.274 29.5h-3.9602l0.025-2.9233h3.9352c0.9828 0 1.8115-0.2207 2.4861-0.6621 0.6746-0.4498 1.1826-1.1036 1.5241-1.9614 0.3498-0.8579 0.5247-1.8948 0.5247-3.1107v-0.887c0-0.9328-0.0999-1.7532-0.2998-2.4611-0.1916-0.7079-0.4789-1.3034-0.862-1.7865-0.3831-0.483-0.8537-0.8453-1.4117-1.0869-0.558-0.2498-1.1993-0.3748-1.9239-0.3748h-4.0727v-2.9358h4.0727c1.216 0 2.3278 0.2082 3.3356 0.6247 1.0161 0.4081 1.8947 0.9952 2.636 1.7615 0.7412 0.7662 1.3117 1.6823 1.7115 2.7484 0.4081 1.0577 0.6121 2.2362 0.6121 3.5355v0.862c0 1.2909-0.204 2.4694-0.6121 3.5354-0.3998 1.0661-0.9703 1.9822-1.7115 2.7485-0.7329 0.7579-1.6116 1.345-2.636 1.7615-1.0161 0.4081-2.1405 0.6121-3.3731 0.6121zm-1.8364-18.19v18.19h-3.7479v-18.19h3.7479zm20.176 0v18.19h-3.7354v-18.19h3.7354zm5.5968 0v2.9358h-14.842v-2.9358h14.842zm9.5445 0h3.1732l4.6719 13.355 4.673-13.355h3.173l-6.571 18.19h-2.549l-6.5711-18.19zm-1.7115 0h3.1607l0.5747 13.018v5.172h-3.7354v-18.19zm15.954 0h3.173v18.19h-3.748v-5.172l0.575-13.018zm5.659 11.568v-0.2624c0-0.9911 0.142-1.903 0.425-2.7359 0.283-0.8412 0.695-1.5699 1.237-2.1862 0.541-0.6163 1.207-1.0952 1.998-1.4367 0.792-0.3498 1.699-0.5247 2.724-0.5247 1.024 0 1.936 0.1749 2.736 0.5247 0.799 0.3415 1.47 0.8204 2.011 1.4367 0.55 0.6163 0.966 1.345 1.249 2.1862 0.284 0.8329 0.425 1.7448 0.425 2.7359v0.2624c0 0.9828-0.141 1.8947-0.425 2.7359-0.283 0.8329-0.699 1.5616-1.249 2.1863-0.541 0.6163-1.208 1.0952-1.999 1.4367-0.791 0.3414-1.699 0.5122-2.723 0.5122-1.025 0-1.937-0.1708-2.736-0.5122-0.791-0.3415-1.462-0.8204-2.011-1.4367-0.542-0.6247-0.954-1.3534-1.237-2.1863-0.283-0.8412-0.425-1.7531-0.425-2.7359zm3.598-0.2624v0.2624c0 0.5663 0.05 1.0952 0.15 1.5866s0.258 0.9245 0.475 1.2992c0.224 0.3665 0.516 0.6538 0.874 0.862 0.358 0.2083 0.795 0.3124 1.312 0.3124 0.5 0 0.928-0.1041 1.287-0.3124 0.358-0.2082 0.645-0.4955 0.862-0.862 0.216-0.3747 0.374-0.8078 0.474-1.2992 0.109-0.4914 0.163-1.0203 0.163-1.5866v-0.2624c0-0.5496-0.054-1.066-0.163-1.5491-0.1-0.4913-0.262-0.9244-0.487-1.2992-0.216-0.3831-0.504-0.683-0.862-0.8995s-0.791-0.3248-1.299-0.3248-0.941 0.1083-1.299 0.3248c-0.35 0.2165-0.638 0.5164-0.862 0.8995-0.217 0.3748-0.375 0.8079-0.475 1.2992-0.1 0.4831-0.15 0.9995-0.15 1.5491zm14.941-3.7478v10.631h-3.598v-13.517h3.373l0.225 2.8858zm-0.524 3.398h-0.975c0-0.9994 0.129-1.8989 0.388-2.6984 0.258-0.8079 0.62-1.495 1.086-2.0613 0.467-0.5747 1.021-1.0119 1.662-1.3118 0.65-0.3081 1.374-0.4622 2.174-0.4622 0.633 0 1.211 0.0916 1.736 0.2748 0.525 0.1833 0.975 0.4748 1.349 0.8745 0.384 0.3998 0.675 0.9287 0.875 1.5866 0.208 0.658 0.312 1.4617 0.312 2.4111v8.6201h-3.623v-8.6325c0-0.5997-0.083-1.0661-0.25-1.3992-0.166-0.3332-0.412-0.5664-0.737-0.6996-0.316-0.1416-0.708-0.2124-1.174-0.2124-0.483 0-0.904 0.0958-1.262 0.2873-0.35 0.1916-0.641 0.4581-0.874 0.7996-0.225 0.3331-0.396 0.7245-0.512 1.1743-0.117 0.4497-0.175 0.9328-0.175 1.4491zm17.565 7.4833c-1.05 0-1.991-0.1666-2.824-0.4998-0.833-0.3414-1.541-0.812-2.124-1.4116-0.574-0.5997-1.016-1.2951-1.324-2.0864-0.308-0.7995-0.462-1.649-0.462-2.5485v-0.4997c0-1.0244 0.146-1.9614 0.437-2.8109 0.292-0.8495 0.708-1.5866 1.249-2.2112 0.55-0.6247 1.216-1.1036 1.999-1.4367 0.783-0.3415 1.666-0.5122 2.649-0.5122 0.958 0 1.807 0.1582 2.548 0.4747 0.742 0.3165 1.362 0.7663 1.862 1.3493 0.508 0.5829 0.891 1.2825 1.149 2.0987 0.258 0.8079 0.387 1.7074 0.387 2.6985v1.4991h-10.743v-2.3986h7.208v-0.2748c0-0.4997-0.092-0.9453-0.275-1.3368-0.175-0.3997-0.441-0.7162-0.799-0.9494-0.359-0.2332-0.817-0.3498-1.375-0.3498-0.474 0-0.882 0.1041-1.224 0.3123-0.341 0.2082-0.62 0.4997-0.837 0.8745-0.208 0.3748-0.366 0.8162-0.475 1.3242-0.1 0.4998-0.15 1.0494-0.15 1.6491v0.4997c0 0.5414 0.075 1.0411 0.225 1.4992 0.158 0.458 0.379 0.8536 0.662 1.1868 0.292 0.3331 0.642 0.5913 1.05 0.7745 0.416 0.1833 0.887 0.2749 1.411 0.2749 0.65 0 1.254-0.125 1.812-0.3748 0.566-0.2582 1.053-0.6455 1.462-1.1618l1.749 1.8989c-0.284 0.4081-0.671 0.7995-1.162 1.1743-0.483 0.3748-1.066 0.6829-1.749 0.9245-0.683 0.2332-1.462 0.3498-2.336 0.3498zm11.431-1.774 3.585-11.993h3.86l-5.434 15.554c-0.117 0.3415-0.275 0.708-0.475 1.0994-0.191 0.3914-0.454 0.7621-0.787 1.1119-0.325 0.3581-0.737 0.6496-1.237 0.8745-0.491 0.2248-1.095 0.3373-1.811 0.3373-0.342 0-0.621-0.0209-0.837-0.0625-0.217-0.0416-0.475-0.0999-0.775-0.1749v-2.636h0.288c0.1 0.0083 0.195 0.0125 0.287 0.0125 0.475 0 0.862-0.0541 1.162-0.1624s0.541-0.2748 0.724-0.4997c0.184-0.2166 0.329-0.4997 0.438-0.8495l1.012-2.611zm-1.5-11.993 2.936 9.7943 0.512 3.8103-2.448 0.2624-4.86-13.867h3.86z" fill="#E1E1E6"/>
</svg>
